<svg width="28" height="28" viewBox="0 0 28 28" fill="none" xmlns="http://www.w3.org/2000/svg">
    <path d="M24.5 14C24.5 14.2321 24.4078 14.4546 24.2437 14.6187C24.0796 14.7828 23.857 14.875 23.625 14.875H6.48699L12.869 21.2559C12.9503 21.3372 13.0148 21.4337 13.0588 21.54C13.1028 21.6462 13.1254 21.76 13.1254 21.875C13.1254 21.99 13.1028 22.1038 13.0588 22.21C13.0148 22.3163 12.9503 22.4128 12.869 22.4941C12.7877 22.5754 12.6912 22.6398 12.585 22.6838C12.4788 22.7278 12.3649 22.7505 12.25 22.7505C12.135 22.7505 12.0211 22.7278 11.9149 22.6838C11.8087 22.6398 11.7122 22.5754 11.6309 22.4941L3.75589 14.6191C3.67454 14.5378 3.61 14.4413 3.56597 14.3351C3.52193 14.2288 3.49927 14.115 3.49927 14C3.49927 13.885 3.52193 13.7711 3.56597 13.6649C3.61 13.5587 3.67454 13.4622 3.75589 13.3809L11.6309 5.50594C11.7951 5.34175 12.0178 5.24951 12.25 5.24951C12.4822 5.24951 12.7048 5.34175 12.869 5.50594C13.0332 5.67012 13.1254 5.8928 13.1254 6.125C13.1254 6.35719 13.0332 6.57988 12.869 6.74406L6.48699 13.125H23.625C23.857 13.125 24.0796 13.2172 24.2437 13.3813C24.4078 13.5454 24.5 13.7679 24.5 14Z" fill="#3F4643"/>
</svg>