<svg width="24" height="24" viewBox="0 0 24 24" fill="none" xmlns="http://www.w3.org/2000/svg">
    <g clip-path="url(#clip0_171_660)">
        <path d="M23.559 13.178L14.879 21.821C13.449 23.251 11.546 24.039 9.522 24.039C7.498 24.039 5.594 23.251 4.163 21.819L1.935 19.579C0.688001 18.331 -0.000999451 16.639 -0.000999451 14.875V8.03899C-0.000999451 6.82399 1.069 5.86299 2.322 6.06599C3.305 6.22599 3.986 7.14899 3.986 8.14599V9.59699L13.12 0.476986C13.707 -0.108014 14.656 -0.108014 15.241 0.477986C15.826 1.06399 15.826 2.01399 15.239 2.59999L4.48 13.344C3.226 14.598 3.226 16.64 4.48 17.895L6.283 19.698C7.148 20.563 8.298 21.039 9.521 21.039C10.744 21.039 11.894 20.563 12.759 19.698L21.441 11.053C22.029 10.469 22.977 10.471 23.562 11.057C24.147 11.644 24.146 12.594 23.559 13.178ZM11.492 10.514C11.785 10.807 12.17 10.954 12.554 10.954C12.938 10.954 13.321 10.808 13.614 10.516L20.586 3.55999C21.172 2.97499 21.174 2.02499 20.588 1.43799C20.004 0.852986 19.055 0.849986 18.467 1.43599L11.495 8.39199C10.909 8.97699 10.908 9.92699 11.493 10.514H11.492ZM14.745 13.613C15.038 13.907 15.422 14.053 15.807 14.053C16.19 14.053 16.574 13.907 16.867 13.615L23.533 6.96499C24.119 6.37999 24.121 5.42999 23.535 4.84299C22.951 4.25799 22.001 4.25499 21.414 4.84099L14.748 11.491C14.162 12.076 14.16 13.026 14.746 13.612L14.745 13.613ZM11.25 13C10.284 13 9.5 13.674 9.5 14.718C9.5 13.674 8.716 13 7.75 13C6.784 13 6 13.846 6 14.89C6 16.276 7.717 17.884 8.746 18.723C9.187 19.083 9.814 19.083 10.255 18.723C11.284 17.884 13.001 16.276 13.001 14.89C13.001 13.846 12.217 13 11.251 13H11.25Z" fill="white"/>
    </g>
    <defs>
        <clipPath id="clip0_171_660">
            <rect width="24" height="24" fill="white"/>
        </clipPath>
    </defs>
</svg>